<svg width="19" height="22" viewBox="0 0 19 22" fill="none" xmlns="http://www.w3.org/2000/svg">
<path d="M13.3092 10.1273C14.5295 10.822 15.4626 11.7753 16.1708 12.9585C16.9269 14.228 17.3815 15.6077 17.5873 17.0592C17.7213 18.0077 17.7643 18.9706 17.8218 19.9287C17.8553 20.47 17.5442 20.7623 16.9987 20.7623C11.6965 20.7623 6.39441 20.7623 1.09227 20.7623C0.537177 20.7623 0.245273 20.4748 0.250058 19.9143C0.264414 17.9838 0.508465 16.0963 1.24062 14.2951C1.94885 12.5561 3.03512 11.1333 4.68127 10.1752C4.70519 10.1609 4.72912 10.1369 4.75305 10.1178C2.31732 7.55004 2.86284 3.62661 5.26508 1.62418C7.54767 -0.287231 10.8878 -0.196212 13.0556 1.84454C15.2712 3.92842 15.6349 7.58836 13.3092 10.1273ZM16.3431 19.2916C16.2522 17.361 15.9507 15.4975 14.9793 13.8064C14.3285 12.6711 13.4288 11.7992 12.2373 11.2291C12.0937 11.1573 11.9885 11.1621 11.8449 11.2387C9.96426 12.2352 8.07884 12.2208 6.203 11.2244C6.08337 11.1621 5.98766 11.1477 5.86803 11.21C4.93489 11.6555 4.15488 12.2879 3.54236 13.1214C2.65229 14.3286 2.18333 15.7035 1.94885 17.1694C1.83878 17.864 1.78136 18.573 1.69523 19.2916C6.60018 19.2916 11.4573 19.2916 16.3431 19.2916ZM13.4288 6.11289C13.4288 3.68889 11.4621 1.71041 9.04069 1.71041C6.61932 1.71041 4.64298 3.67931 4.64298 6.10331C4.64298 8.5273 6.60975 10.5058 9.03112 10.5058C11.4525 10.5106 13.4288 8.53688 13.4288 6.11289Z" fill="black" stroke="black" stroke-width="0.5" stroke-miterlimit="10"/>
</svg>
