<svg width="23" height="22" viewBox="0 0 23 22" fill="none" xmlns="http://www.w3.org/2000/svg">
<path d="M22.0244 4.70937C21.7567 5.52263 21.489 6.33589 21.2259 7.14915C20.5243 9.32554 19.8319 11.5066 19.1349 13.683C18.9688 14.2005 18.7795 14.3437 18.2395 14.3437C14.8653 14.3437 11.4912 14.3437 8.11705 14.3391C7.9278 14.3391 7.84472 14.3946 7.78933 14.5748C7.62316 15.0692 7.43853 15.559 7.24928 16.095C7.36006 16.095 7.44776 16.095 7.53546 16.095C11.085 16.095 14.6392 16.095 18.1887 16.095C18.281 16.095 18.3733 16.095 18.4657 16.1042C18.7841 16.1458 19.0057 16.3954 18.9965 16.6911C18.9872 16.9914 18.7565 17.2363 18.4426 17.2594C18.2349 17.2733 18.0225 17.2641 17.7687 17.2641C18.2164 17.8324 18.3918 18.4331 18.2487 19.1031C18.1379 19.6299 17.8564 20.0596 17.4133 20.3692C16.6147 20.9284 15.5854 20.9099 14.773 20.189C13.9837 19.4913 13.9191 18.4655 14.6069 17.2825C13.1113 17.2825 11.6204 17.2825 10.1018 17.2825C10.5727 17.9156 10.748 18.5902 10.4896 19.3434C10.3372 19.787 10.0603 20.1428 9.67719 20.4016C8.85558 20.9561 7.78471 20.859 7.06004 20.1567C6.44152 19.5606 6.06764 18.4193 6.94002 17.2641C6.77847 17.2641 6.64462 17.2641 6.50614 17.2641C5.98456 17.2548 5.73068 16.899 5.90147 16.4046C6.11841 15.79 6.33997 15.1755 6.56153 14.5655C6.58461 14.5008 6.60307 14.4361 6.63076 14.3437C6.51998 14.3437 6.42767 14.3437 6.33997 14.3437C5.94763 14.3345 5.67991 14.1127 5.61068 13.7338C5.36604 12.4169 5.12602 11.0999 4.88599 9.783C4.46596 7.49109 4.04131 5.19917 3.62589 2.90264C3.60281 2.77326 3.54741 2.71319 3.4274 2.66698C2.53194 2.32042 1.63648 1.96462 0.741016 1.60882C0.367137 1.46095 0.187119 1.12825 0.270203 0.786316C0.376366 0.356582 0.796402 0.139405 1.2349 0.305753C1.79803 0.51831 2.35654 0.744729 2.91505 0.966527C3.40432 1.15598 3.88899 1.35467 4.37826 1.53951C4.68752 1.65503 4.8583 1.8722 4.91831 2.19104C5.33373 4.45523 5.74915 6.72404 6.16457 8.98822C6.39536 10.2497 6.62615 11.5112 6.85233 12.7727C6.87541 12.9067 6.93079 12.9529 7.07388 12.9529C10.6234 12.9482 14.1776 12.9482 17.7271 12.9529C17.8425 12.9529 17.9164 12.9344 17.9579 12.8004C18.7565 10.2959 19.5596 7.79606 20.3581 5.29159C20.3627 5.27773 20.3581 5.26386 20.3581 5.22228C20.2012 5.21304 20.0443 5.19917 19.8873 5.18993C17.4086 5.08365 14.93 4.982 12.4513 4.87572C10.9142 4.81103 9.37716 4.74171 7.84011 4.6724C7.40161 4.65392 7.11081 4.35357 7.12466 3.94232C7.1385 3.54493 7.45238 3.26306 7.88165 3.27692C8.57401 3.30003 9.271 3.33699 9.96337 3.36472C11.445 3.42941 12.9221 3.49872 14.4038 3.55879C16.7117 3.66045 19.0196 3.75749 21.3274 3.85914C21.6967 3.87301 21.8998 4.09018 22.0244 4.41364C22.0244 4.51068 22.0244 4.60771 22.0244 4.70937ZM16.2132 17.7308C15.7008 17.7261 15.2761 18.142 15.2715 18.6503C15.2669 19.1586 15.6962 19.5837 16.2039 19.5837C16.707 19.5837 17.1271 19.1725 17.1317 18.6688C17.1409 18.1605 16.7255 17.7354 16.2132 17.7308ZM9.44179 18.6549C9.44179 18.1374 9.02636 17.7308 8.50477 17.7308C7.99704 17.7354 7.59085 18.142 7.58624 18.6503C7.58162 19.1632 7.99704 19.5837 8.51401 19.5883C9.02636 19.5883 9.44179 19.1725 9.44179 18.6549Z" fill="black" stroke="black" stroke-width="0.5" stroke-miterlimit="10"/>
</svg>
