<svg width="24" height="24" viewBox="0 0 24 24" fill="none" xmlns="http://www.w3.org/2000/svg">
<path d="M16.3966 17.7815C13.8683 19.7445 11.0372 20.4337 7.91956 19.7445C5.52904 19.2206 3.60119 17.9304 2.15806 15.9508C-0.827338 11.8593 -0.254486 6.25703 3.49104 2.79418C7.04928 -0.497732 12.7337 -0.596986 16.4516 2.50745C20.445 5.84347 21.3153 12.0192 17.7901 16.3919C17.8562 16.4636 17.9278 16.5408 17.9994 16.6125C19.6243 18.2391 21.2547 19.8658 22.8741 21.5035C23.0394 21.6689 23.1715 21.9005 23.2266 22.1266C23.3258 22.5512 23.0999 22.9427 22.7309 23.1357C22.3508 23.3342 21.9157 23.2735 21.5907 22.9592C21.1115 22.4905 20.6433 22.0163 20.1751 21.5421C18.9744 20.3455 17.7791 19.1435 16.5783 17.9469C16.5232 17.8918 16.4627 17.8421 16.3966 17.7815ZM10.1393 2.17109C5.78792 2.16006 2.21866 5.71665 2.19662 10.0948C2.17459 14.4675 5.73834 18.0572 10.1118 18.0682C14.4687 18.0792 18.049 14.5226 18.071 10.161C18.0931 5.76627 14.5348 2.18211 10.1393 2.17109Z" fill="black" stroke="black" stroke-width="0.5" stroke-miterlimit="10"/>
</svg>
