<svg width="24" height="22" viewBox="0 0 24 22" fill="none" xmlns="http://www.w3.org/2000/svg">
<path d="M0.254896 6.65214C0.329811 6.20217 0.373878 5.74778 0.488454 5.30663C1.09218 2.99498 2.44505 1.30537 4.75419 0.577465C7.22198 -0.203376 9.37247 0.427473 11.1528 2.30679C11.3643 2.52736 11.5494 2.77 11.7565 3.01704C11.9592 2.77882 12.1443 2.5406 12.3514 2.31561C13.3341 1.25684 14.5063 0.520115 15.9562 0.334831C18.1948 0.0480817 20.1117 0.731869 21.5836 2.45678C23.0555 4.18169 23.4873 6.21981 23.148 8.4344C22.9321 9.83727 22.2931 11.0593 21.4558 12.1842C20.3585 13.6621 19.0189 14.9061 17.6395 16.1105C16.0135 17.5266 14.3741 18.9338 12.7392 20.3411C12.1091 20.8837 11.4348 20.9058 10.8311 20.3852C8.69824 18.5324 6.56096 16.6884 4.45453 14.8047C3.38369 13.8518 2.42743 12.7842 1.63862 11.5754C0.898282 10.4328 0.400319 9.20201 0.285743 7.83443C0.281336 7.7815 0.263709 7.73297 0.250488 7.68444C0.254895 7.34034 0.254896 6.99624 0.254896 6.65214ZM11.7521 19.4015C11.8094 19.3574 11.8579 19.3221 11.902 19.2824C13.7219 17.7074 15.5507 16.1458 17.3531 14.5576C18.6134 13.4459 19.8121 12.268 20.7419 10.8563C21.6321 9.51082 22.0683 8.04619 21.8656 6.42274C21.6453 4.67137 20.8961 3.21997 19.345 2.30679C17.8995 1.45536 16.3704 1.34948 14.8368 2.09062C13.9291 2.52736 13.2592 3.23762 12.6952 4.06257C12.6158 4.18169 12.5409 4.30521 12.4572 4.41991C12.087 4.92723 11.426 4.92282 11.0514 4.42432C10.7253 3.98758 10.4257 3.52437 10.0511 3.12733C8.84807 1.8524 7.35858 1.35831 5.64436 1.72888C3.79352 2.13032 2.57726 3.30379 1.96472 5.0684C1.25082 7.11977 1.59014 9.05202 2.77115 10.8519C3.50267 11.968 4.40165 12.9474 5.38877 13.8341C7.01927 15.3032 8.68502 16.7369 10.3331 18.1795C10.8047 18.5897 11.2762 18.9912 11.7521 19.4015Z" fill="black" stroke="black" stroke-width="0.5" stroke-miterlimit="10"/>
</svg>
